<svg width="20" height="20" viewBox="0 0 20 20" fill="none" xmlns="http://www.w3.org/2000/svg">
<path d="M17.2167 1.37335C16.2086 0.367087 14.5762 0.367087 13.5682 1.37335L12.6549 2.29164L2.93304 12.0084L2.91238 12.0292C2.90738 12.0342 2.90738 12.0395 2.90205 12.0395C2.89172 12.055 2.87622 12.0703 2.86605 12.0858C2.86605 12.091 2.86073 12.091 2.86073 12.0962C2.8504 12.1117 2.84539 12.122 2.8349 12.1375C2.8299 12.1427 2.8299 12.1477 2.82473 12.153C2.81957 12.1685 2.8144 12.1788 2.80908 12.1943C2.80908 12.1993 2.80407 12.1993 2.80407 12.2046L0.647079 18.691C0.583804 18.8756 0.631906 19.0801 0.770884 19.2172C0.868541 19.3135 1.00026 19.3674 1.1373 19.367C1.19331 19.366 1.24883 19.3573 1.30242 19.3411L7.78373 17.179C7.78874 17.179 7.78874 17.179 7.79406 17.174C7.81037 17.1691 7.82602 17.1622 7.84039 17.1531C7.84443 17.1527 7.84798 17.1509 7.85088 17.1481C7.86622 17.1378 7.88688 17.1273 7.90237 17.117C7.91771 17.1068 7.93336 17.0913 7.94886 17.081C7.95403 17.0757 7.95903 17.0757 7.95903 17.0707C7.96436 17.0655 7.97469 17.0605 7.97985 17.05L18.615 6.41483C19.6213 5.4068 19.6213 3.7744 18.615 2.76653L17.2167 1.37335ZM7.61861 15.9663L4.02711 12.3749L13.0162 3.38588L16.6077 6.97721L7.61861 15.9663ZM3.52124 13.3295L6.65883 16.467L1.94744 18.0356L3.52124 13.3295ZM17.8875 5.69234L17.3405 6.24454L13.7488 2.65289L14.3012 2.10085C14.9054 1.49716 15.8847 1.49716 16.489 2.10085L17.8925 3.50435C18.4922 4.11128 18.4899 5.08832 17.8875 5.69234Z" fill="#0DB14B"/>
</svg>
